<svg version="1.1" id="Logo" xmlns="http://www.w3.org/2000/svg" x="0" y="0" viewBox="0 0 4090.6 1280" xml:space="preserve"><path d="M910.7 925.4c-.7.1-1.7.2-2.9.3s-2.5.2-3.7.2c-1.6 0-2.8-.1-3.9-.2-1-.1-1.9-.2-2.6-.3l9.3-93.1c.8-.2 1.8-.3 3.2-.4 1.3-.1 2.7-.1 4.2-.1s2.9 0 4.3.1 2.5.2 3.2.4l25.6 75.6 24.1-75.6c.7-.2 1.7-.3 3-.4 1.3-.1 2.7-.1 4.2-.1 1.6 0 3.2 0 4.5.1s2.4.2 3.1.4l9.4 93.1c-.7.1-1.6.2-2.7.3s-2.4.2-3.8.2-2.7-.1-3.9-.2c-1.2-.1-2.2-.2-2.8-.3l-6.2-71.1-23.9 71.2c-1.4.3-3.4.4-6.1.4-1.1 0-2.2 0-3.2-.1s-1.9-.2-2.5-.3l-23.9-70.2-6 70.1zm97.8-33.1c0-6.6 1.1-12.5 3.4-17.7 2.2-5.2 5.7-9.4 10.3-12.5 4.6-3.1 10.4-4.7 17.3-4.7 7 0 12.8 1.5 17.3 4.7 4.6 3.1 8 7.3 10.2 12.5 2.2 5.2 3.4 11.1 3.4 17.7 0 6.5-1.1 12.3-3.4 17.6-2.2 5.3-5.7 9.4-10.2 12.5s-10.4 4.6-17.3 4.6-12.7-1.5-17.3-4.6c-4.6-3.1-8.1-7.2-10.3-12.5-2.3-5.3-3.4-11.1-3.4-17.6zm48.4 0c0-7.7-1.4-13.7-4.3-17.9s-7.3-6.4-13.1-6.4-10.2 2.1-13.1 6.4c-2.9 4.3-4.3 10.2-4.3 17.9 0 7.6 1.4 13.6 4.3 17.9 2.8 4.4 7.2 6.5 13.1 6.5s10.2-2.2 13.1-6.5c2.9-4.4 4.3-10.3 4.3-17.9zm28.9 33.1V859c.9-.2 1.9-.3 2.8-.4.9-.1 1.8-.1 2.8-.1.9 0 1.9 0 2.7.1s1.7.2 2.6.4c.3 1.3.5 3 .8 5.2s.4 4 .4 5.5c1.2-2 2.8-3.9 4.7-5.8 1.9-1.9 4.3-3.4 7.1-4.7 2.8-1.2 5.9-1.9 9.4-1.9 7.6 0 13.2 2.2 16.8 6.6 3.6 4.4 5.4 10.8 5.4 19.3v42.1c-.9.1-2 .2-3.2.3s-2.3.2-3.2.2c-.9 0-1.9-.1-3.1-.2s-2.3-.2-3.2-.3v-38.6c0-11.9-4-17.9-11.9-17.9-3.2 0-6.2.8-8.9 2.3s-4.9 4-6.6 7.3c-1.7 3.3-2.5 7.7-2.5 13.1v33.7c-.9.1-2 .2-3.2.3-1.2.1-2.2.2-3.2.2-.9 0-1.9-.1-3.2-.2-1.2.1-2.3 0-3.3-.1zm123.2-2.1c-5.5 2.4-11.8 3.6-18.8 3.6-8.3 0-15-1.5-20.1-4.4-5.1-2.9-8.9-6.9-11.3-12s-3.6-10.7-3.6-17c0-6.8 1.2-13 3.8-18.4 2.5-5.4 6.2-9.8 11.1-13 4.9-3.2 11-4.8 18.1-4.8 7.8 0 13.8 2 18 5.9s6.3 9 6.3 15.3c0 4.9-1.3 8.9-4 11.9s-6.3 5.2-10.9 6.5c-4.6 1.3-9.8 2-15.7 2-2.2 0-4.6-.1-7.1-.3-2.5-.2-4.7-.4-6.7-.7.7 6.5 3 11.1 6.9 13.9s9 4.2 15.3 4.2c5.6 0 11-1.1 16.1-3.2.7 1.3 1.2 2.9 1.7 4.7.5 2.2.8 4 .9 5.8zm-21.6-55.6c-5.1 0-9.5 1.9-13.1 5.6s-5.6 8.8-5.9 15.2c2.2.3 4.5.5 6.7.6s4.2.2 6 .2c6.6 0 11.3-.8 14.3-2.5s4.5-4.5 4.5-8.5c0-3.3-1.1-5.8-3.3-7.7-2.3-2-5.3-2.9-9.2-2.9zm65.2 71.2c-2.5 7.1-5.2 12-8.2 14.7-3 2.7-7 4.1-12.1 4.1-3.5 0-7.2-.5-11.1-1.5 0-3.6.7-7 2.1-10 2.2.8 4.8 1.2 7.8 1.2 2.6 0 4.6-.8 6.2-2.4 1.5-1.6 3.1-4.6 4.7-9.1l3-7.9-28-69c.9-.2 1.9-.3 3.2-.3 1.3 0 2.5-.1 3.6-.1s2.5 0 4 .1 2.7.2 3.5.3l19.2 52.7 17.7-52.7c1.8-.3 3.9-.4 6.3-.4.9 0 2.1 0 3.5.1 1.4 0 2.5.2 3.4.3l-28.8 79.9zm68.8-13.5V859c.9-.2 1.9-.3 2.8-.4.9-.1 1.8-.1 2.8-.1.9 0 1.9 0 2.7.1s1.7.2 2.6.4c.3 1.3.5 3 .8 5.1.3 2.1.4 3.9.4 5.4 1.6-3 3.9-5.8 7.1-8.3 3.2-2.5 7.3-3.8 12.3-3.8 5.1 0 9.1 1.1 11.9 3.2 2.8 2.1 5 5.1 6.5 8.9 1.8-3 4.3-5.8 7.4-8.3 3.1-2.5 7.1-3.8 12-3.8 7.7 0 13.3 2.2 16.8 6.5s5.2 10.7 5.2 19.2v42.3c-.9.1-2 .2-3.2.3s-2.3.2-3.2.2c-.9 0-1.9-.1-3.1-.2s-2.3-.2-3.2-.3v-38.6c0-6-.9-10.4-2.8-13.4s-4.8-4.5-8.9-4.5c-4.3 0-7.9 1.6-10.6 4.8s-4.1 7.9-4.1 14.1v37.5c-.9.1-2 .2-3.2.3-1.2.1-2.2.2-3.2.2-.9 0-1.9-.1-3.1-.2s-2.3-.2-3.2-.3v-39.5c0-11.6-3.6-17.3-10.9-17.3-4.3 0-8 1.9-11.1 5.7-3.1 3.8-4.6 9.5-4.6 17.2v33.9c-.9.1-2 .2-3.2.3-1.2.1-2.2.2-3.2.2-.9 0-1.9-.1-3.2-.2-1.2 0-2.3-.1-3.3-.2zm144.3-41.3v-2.5c0-5.1-1.3-8.6-3.9-10.6-2.6-2-6.4-3-11.2-3-2.9 0-5.7.2-8.4.7-2.7.5-5.3 1.1-7.8 1.9-1.6-2.8-2.5-6.3-2.5-10.2 2.9-1 6.2-1.7 9.7-2.2 3.5-.5 6.9-.8 10.2-.8 8.6 0 15.2 2 19.7 6s6.7 10.2 6.7 18.8v41.6c-2.9.7-6.6 1.4-10.9 2.1-4.4.7-8.8 1.1-13.3 1.1-8.4 0-15.1-1.6-20.1-4.9-5-3.3-7.5-8.7-7.5-16.3 0-5 1.3-9.2 3.9-12.4 2.6-3.3 6-5.7 10.3-7.4s8.9-2.5 13.8-2.5c2.8 0 5.1.1 6.9.2 1.8.1 3.3.3 4.4.4zm0 31.2v-21.1c-1.3-.2-2.9-.3-4.9-.5-2-.2-3.7-.3-5.1-.3-5.3 0-9.3 1-12.2 3-2.8 2-4.3 5-4.3 9.1 0 3.5.8 6 2.4 7.5s3.5 2.5 5.8 3 4.4.7 6.5.7c4.2-.1 8.2-.5 11.8-1.4zm32.9-8.4v-37.7h-10.1l-.5-1.8 22.3-24.9h1V859h16.8c.3 1.5.5 3.1.5 4.9 0 .9 0 1.8-.1 2.7-.1.9-.2 1.8-.4 2.7h-16.8v30.3c0 4.8.3 8.3.8 10.7.6 2.4 1.6 4 3 4.7 1.4.8 3.4 1.2 5.9 1.2 1.5 0 2.8-.1 4.1-.3s2.5-.5 3.5-.7c.6 1.6 1 3.4 1.1 5.2.1 1.9.2 3.5.2 4.9-1.6.3-3.4.7-5.4.9-1.9.3-4 .4-6.2.4-6.1 0-11-1.5-14.5-4.5-3.4-3.2-5.2-8.2-5.2-15.2zm44.4 0v-37.7h-10.1l-.5-1.8 22.3-24.9h1V859h16.8c.3 1.5.5 3.1.5 4.9 0 .9 0 1.8-.1 2.7-.1.9-.2 1.8-.4 2.7h-16.8v30.3c0 4.8.3 8.3.8 10.7.6 2.4 1.6 4 3 4.7 1.4.8 3.4 1.2 5.9 1.2 1.5 0 2.8-.1 4.1-.3s2.5-.5 3.5-.7c.6 1.6 1 3.4 1.1 5.2.1 1.9.2 3.5.2 4.9-1.6.3-3.4.7-5.4.9-1.9.3-4 .4-6.2.4-6.1 0-11-1.5-14.5-4.5-3.4-3.2-5.2-8.2-5.2-15.2zm91.7 16.4c-5.5 2.4-11.8 3.6-18.8 3.6-8.3 0-15-1.5-20.1-4.4-5.1-2.9-8.9-6.9-11.3-12-2.4-5-3.6-10.7-3.6-17 0-6.8 1.2-13 3.8-18.4 2.5-5.4 6.2-9.8 11.1-13 4.9-3.2 11-4.8 18.1-4.8 7.8 0 13.8 2 18 5.9s6.3 9 6.3 15.3c0 4.9-1.3 8.9-4 11.9s-6.3 5.2-10.9 6.5c-4.6 1.3-9.8 2-15.7 2-2.2 0-4.6-.1-7.1-.3-2.5-.2-4.7-.4-6.7-.7.7 6.5 3 11.1 6.9 13.9s9 4.2 15.3 4.2c5.6 0 11-1.1 16.1-3.2.7 1.3 1.2 2.9 1.7 4.7.6 2.2.8 4 .9 5.8zm-21.6-55.6c-5.1 0-9.5 1.9-13.1 5.6s-5.6 8.8-5.9 15.2c2.2.3 4.5.5 6.7.6s4.2.2 6 .2c6.6 0 11.3-.8 14.3-2.5s4.5-4.5 4.5-8.5c0-3.3-1.1-5.8-3.3-7.7-2.3-2-5.3-2.9-9.2-2.9zm39.7 57.7V859c.9-.2 1.9-.3 2.8-.4.9-.1 1.8-.1 2.7-.1.9 0 1.9 0 2.8.1s1.8.2 2.6.4c.3 1.3.5 3 .8 5.1.3 2.1.4 3.9.4 5.4 1.8-2.9 4.2-5.5 7.2-7.6 3-2.2 6.8-3.2 11.5-3.2.7 0 1.4 0 2.1.1.7 0 1.4.1 1.9.2.2.8.3 1.6.4 2.5.1.9.1 1.8.1 2.7 0 2-.2 4.1-.7 6.5-.7-.2-1.4-.3-2.1-.3h-1.8c-3 0-5.9.6-8.7 1.8s-5 3.4-6.7 6.6c-1.7 3.2-2.5 7.8-2.5 13.7v33c-.9.2-2 .3-3.2.4-1.2.1-2.2.1-3.2.1-.9 0-1.9 0-3.1-.1-1.2-.2-2.3-.3-3.3-.5zm63.2-29.6l-4.5-1.7c-5.5-2.1-9.5-4.4-12-7-2.5-2.6-3.8-6.1-3.8-10.5 0-5.9 2.1-10.5 6.3-14 4.2-3.5 10.4-5.2 18.4-5.2 3.4 0 6.7.3 9.9 1s6.1 1.4 8.5 2.3c-.4 3.5-1.3 6.9-2.7 10-1.9-.7-4.2-1.4-6.8-2s-5.5-1-8.5-1c-3.2 0-6 .6-8.5 1.7s-3.7 3.1-3.7 6 1.1 5 3.4 6.3c2.2 1.3 4.9 2.5 7.9 3.5l5.7 1.9c2.8 1 5.3 2.1 7.6 3.6 2.3 1.4 4.1 3.3 5.5 5.7s2.1 5.5 2.1 9.3c0 4.2-1.1 7.9-3.4 11.1s-5.4 5.7-9.5 7.5-8.9 2.7-14.3 2.7c-4.1 0-7.8-.3-10.9-.8s-6-1.3-8.7-2.3c.2-1.7.5-3.5 1.1-5.3.6-1.8 1.2-3.5 1.9-5.2 2.3.9 4.9 1.6 7.8 2.2 2.8.6 5.6.9 8.3.9 4.1 0 7.6-.9 10.5-2.6 2.9-1.7 4.4-4.2 4.4-7.4 0-2.3-.5-4.1-1.6-5.4s-2.5-2.3-4.3-3.1c-2-.8-4-1.5-6.1-2.2zm69 29.6V859c.9-.2 1.9-.3 2.8-.4.9-.1 1.8-.1 2.8-.1.9 0 1.9 0 2.7.1s1.7.2 2.6.4c.3 1.3.5 3 .8 5.1.3 2.1.4 3.9.4 5.4 1.6-3 3.9-5.8 7.1-8.3 3.2-2.5 7.3-3.8 12.3-3.8 5.1 0 9.1 1.1 11.9 3.2 2.9 2.1 5 5.1 6.5 8.9 1.8-3 4.3-5.8 7.4-8.3 3.1-2.5 7.1-3.8 12-3.8 7.7 0 13.3 2.2 16.8 6.5s5.2 10.7 5.2 19.2v42.3c-.9.1-2 .2-3.2.3s-2.3.2-3.2.2c-.9 0-1.9-.1-3.1-.2-1.2-.1-2.3-.2-3.2-.3v-38.6c0-6-.9-10.4-2.8-13.4s-4.8-4.5-8.9-4.5c-4.3 0-7.9 1.6-10.6 4.8s-4.1 7.9-4.1 14.1v37.5c-.9.1-2 .2-3.2.3s-2.2.2-3.2.2c-.9 0-1.9-.1-3.1-.2-1.2-.1-2.3-.2-3.2-.3v-39.5c0-11.6-3.6-17.3-10.9-17.3-4.3 0-8 1.9-11.1 5.7-3.1 3.8-4.6 9.5-4.6 17.2v33.9c-.9.1-2 .2-3.2.3-1.2.1-2.2.2-3.2.2-.9 0-1.9-.1-3.2-.2-1.2 0-2.3-.1-3.3-.2zm144.3-41.3v-2.5c0-5.1-1.3-8.6-3.9-10.6-2.6-2-6.4-3-11.2-3-2.9 0-5.7.2-8.4.7-2.7.5-5.3 1.1-7.8 1.9-1.6-2.8-2.5-6.3-2.5-10.2 2.9-1 6.2-1.7 9.7-2.2s6.9-.8 10.2-.8c8.6 0 15.2 2 19.7 6s6.7 10.2 6.7 18.8v41.6c-2.9.7-6.6 1.4-10.9 2.1-4.4.7-8.8 1.1-13.3 1.1-8.4 0-15.1-1.6-20.1-4.9-5-3.3-7.5-8.7-7.5-16.3 0-5 1.3-9.2 3.9-12.4 2.6-3.3 6-5.7 10.3-7.4s8.9-2.5 13.8-2.5c2.8 0 5.1.1 6.9.2 1.8.1 3.2.3 4.4.4zm0 31.2v-21.1c-1.3-.2-2.9-.3-4.9-.5-2-.2-3.7-.3-5.1-.3-5.3 0-9.3 1-12.2 3-2.9 2-4.3 5-4.3 9.1 0 3.5.8 6 2.4 7.5 1.6 1.5 3.5 2.5 5.8 3s4.4.7 6.5.7c4.2-.1 8.1-.5 11.8-1.4zm73-55.9v-28.9c.9-.2 2-.3 3.2-.4s2.2-.1 3.1-.1c.9 0 2 0 3.2.1 1.2.1 2.2.2 3.2.4v93.1c-3.2 1-6.8 1.8-10.9 2.4-4.1.7-8.6 1-13.7 1-6.2 0-11.9-1.1-17.1-3.2s-9.4-5.7-12.5-10.6c-3.1-4.9-4.7-11.5-4.7-19.7 0-7.2 1.4-13.4 4.1-18.8 2.8-5.4 6.6-9.6 11.6-12.6s10.9-4.5 17.6-4.5c2.2 0 4.5.2 6.9.5 2.4.4 4.4.8 6 1.3zm0 55.7v-44.8c-1.6-.7-3.5-1.2-5.5-1.5-2-.3-4.2-.5-6.5-.5-4.8 0-8.6 1.1-11.6 3.3s-5.3 5.2-6.7 9c-1.5 3.8-2.2 8.1-2.2 13 0 8.1 1.9 14 5.8 17.5 3.8 3.6 9 5.4 15.6 5.4 2.2 0 4.3-.1 6.3-.4 1.8-.4 3.4-.7 4.8-1zm81.6 8.2c-5.5 2.4-11.8 3.6-18.8 3.6-8.3 0-15-1.5-20.1-4.4-5.1-2.9-8.9-6.9-11.3-12-2.4-5-3.6-10.7-3.6-17 0-6.8 1.2-13 3.8-18.4 2.5-5.4 6.2-9.8 11.1-13 4.9-3.2 11-4.8 18.1-4.8 7.8 0 13.8 2 18 5.9s6.3 9 6.3 15.3c0 4.9-1.3 8.9-4 11.9s-6.3 5.2-10.9 6.5c-4.6 1.3-9.8 2-15.7 2-2.2 0-4.6-.1-7.1-.3s-4.7-.4-6.7-.7c.7 6.5 3 11.1 6.9 13.9 3.9 2.8 9 4.2 15.3 4.2 5.6 0 11-1.1 16.1-3.2.7 1.3 1.2 2.9 1.7 4.7.6 2.2.8 4 .9 5.8zm-21.6-55.6c-5.1 0-9.5 1.9-13.1 5.6s-5.6 8.8-5.9 15.2c2.2.3 4.5.5 6.7.6s4.2.2 6 .2c6.6 0 11.3-.8 14.3-2.5s4.5-4.5 4.5-8.5c0-3.3-1.1-5.8-3.3-7.7-2.3-2-5.3-2.9-9.2-2.9zm86.8 28.1l-4.5-1.7c-5.5-2.1-9.5-4.4-12-7-2.5-2.6-3.8-6.1-3.8-10.5 0-5.9 2.1-10.5 6.3-14 4.2-3.5 10.4-5.2 18.4-5.2 3.4 0 6.7.3 9.9 1s6.1 1.4 8.5 2.3c-.4 3.5-1.3 6.9-2.7 10-1.9-.7-4.2-1.4-6.8-2-2.6-.7-5.5-1-8.5-1-3.2 0-6 .6-8.5 1.7s-3.7 3.1-3.7 6 1.1 5 3.4 6.3c2.2 1.3 4.9 2.5 7.9 3.5l5.7 1.9c2.8 1 5.3 2.1 7.6 3.6 2.3 1.4 4.1 3.3 5.5 5.7s2.1 5.5 2.1 9.3c0 4.2-1.1 7.9-3.4 11.1s-5.4 5.7-9.5 7.5-8.9 2.7-14.3 2.7c-4.1 0-7.8-.3-10.9-.8-3.1-.6-6-1.3-8.7-2.3.2-1.7.5-3.5 1.1-5.3s1.2-3.5 1.9-5.2c2.3.9 4.9 1.6 7.8 2.2 2.9.6 5.6.9 8.3.9 4.1 0 7.6-.9 10.5-2.6 2.9-1.7 4.4-4.2 4.4-7.4 0-2.3-.5-4.1-1.6-5.4s-2.5-2.3-4.3-3.1c-2-.8-4-1.5-6.1-2.2zm43.6 29.6v-56.3h-8.4c-.2-.7-.3-1.5-.4-2.4-.1-.9-.1-1.8-.1-2.7 0-.9 0-1.8.1-2.7.1-.9.2-1.7.4-2.4h21v66.4c-.9.1-2 .2-3.2.3-1.2.1-2.2.2-3.2.2-.9 0-1.9-.1-3-.2-1.2 0-2.2-.1-3.2-.2zm-2.8-81c-.1-1-.2-2.2-.3-3.4s-.1-2.3-.1-3.2 0-2 .1-3.2c.1-1.2.2-2.3.3-3.2 1.1-.2 2.3-.3 3.6-.4 1.3-.1 2.4-.1 3.4-.1.9 0 2.1 0 3.4.1 1.3.1 2.5.2 3.5.4.2 1 .3 2 .3 3.2 0 1.2.1 2.3.1 3.2s0 2-.1 3.2c0 1.2-.1 2.3-.3 3.4-1 .2-2.2.3-3.4.4s-2.4.1-3.3.1c-1 0-2.2 0-3.5-.1-1.4-.1-2.6-.3-3.7-.4zm34.8 81V859c.9-.2 1.9-.3 2.8-.4.9-.1 1.8-.1 2.8-.1s1.9 0 2.7.1c.9.1 1.7.2 2.6.4.3 1.3.5 3 .8 5.1.3 2.1.4 3.9.4 5.4 1.6-3 3.9-5.8 7.1-8.3 3.2-2.5 7.3-3.8 12.3-3.8 5.1 0 9.1 1.1 11.9 3.2 2.9 2.1 5 5.1 6.5 8.9 1.8-3 4.3-5.8 7.4-8.3 3.1-2.5 7.1-3.8 12-3.8 7.7 0 13.3 2.2 16.8 6.5s5.2 10.7 5.2 19.2v42.3c-.9.1-2 .2-3.2.3s-2.3.2-3.2.2c-.9 0-1.9-.1-3.1-.2-1.2-.1-2.3-.2-3.2-.3v-38.6c0-6-.9-10.4-2.8-13.4s-4.8-4.5-8.9-4.5c-4.3 0-7.9 1.6-10.6 4.8s-4.1 7.9-4.1 14.1v37.5c-.9.1-2 .2-3.2.3-1.2.1-2.2.2-3.2.2-.9 0-1.9-.1-3.1-.2-1.2-.1-2.3-.2-3.2-.3v-39.5c0-11.6-3.6-17.3-10.9-17.3-4.3 0-8 1.9-11.1 5.7s-4.6 9.5-4.6 17.2v33.9c-.9.1-2 .2-3.2.3-1.2.1-2.2.2-3.2.2-.9 0-1.9-.1-3.2-.2-1.2 0-2.3-.1-3.3-.2zm109.1 30.6v-97c.9-.2 1.8-.3 2.7-.4s1.9-.1 2.7-.1c.9 0 1.8 0 2.7.1s1.9.2 2.7.4c.2.3.3 1.1.5 2.5s.3 2.8.5 4.2c.2 1.4.3 2.3.3 2.7 1.7-2.8 4.2-5.3 7.5-7.5s7.5-3.4 12.7-3.4c5.3 0 9.9 1.2 13.9 3.5s7.2 5.9 9.5 10.8 3.5 11.2 3.5 18.8c0 11.3-3.1 20.2-9.3 26.7s-14.9 9.7-26.2 9.7c-1.9 0-3.8-.2-5.8-.5s-3.7-.6-5.2-1V956c-1 .2-2.1.3-3.3.4-1.2.1-2.2.1-3.2.1-.9 0-1.9 0-3.1-.1-1.1-.1-2.2-.2-3.1-.4zm12.8-68.4v26.9c1.6.6 3.3 1 5.1 1.3 1.8.3 4 .4 6.7.4 6.1 0 11.2-2 15.2-6.1s6-10.4 6-19c0-6.9-1.3-12.4-3.8-16.4s-6.7-6.1-12.5-6.1c-2.9 0-5.6.7-8.1 2-2.6 1.3-4.6 3.4-6.2 6.2-1.6 2.8-2.4 6.4-2.4 10.8zm62 20.6v-77.7c.9-.2 2-.3 3.2-.4s2.2-.1 3.1-.1c.9 0 2 0 3.2.1 1.2.1 2.2.2 3.2.4v74.8c0 3.2.4 5.5 1.1 7.1s1.7 2.5 3 2.9 2.6.7 4.1.7c.8 0 1.7-.1 2.6-.2s1.8-.2 2.5-.3c.8 2.9 1.2 6.2 1.2 9.8-1.2.3-2.7.6-4.4.8-1.7.2-3.3.3-4.8.3-3.3 0-6.3-.5-9-1.6s-4.9-3-6.5-5.6c-1.7-2.8-2.5-6.4-2.5-11zm87.2 15.1c-5.5 2.4-11.8 3.6-18.8 3.6-8.3 0-15-1.5-20.1-4.4-5.1-2.9-8.9-6.9-11.3-12-2.4-5-3.6-10.7-3.6-17 0-6.8 1.2-13 3.8-18.4 2.5-5.4 6.2-9.8 11.1-13 4.9-3.2 11-4.8 18.1-4.8 7.8 0 13.8 2 18 5.9s6.3 9 6.3 15.3c0 4.9-1.3 8.9-4 11.9s-6.3 5.2-10.9 6.5c-4.6 1.3-9.8 2-15.7 2-2.2 0-4.6-.1-7.1-.3s-4.7-.4-6.7-.7c.7 6.5 3 11.1 6.9 13.9 3.9 2.8 9 4.2 15.3 4.2 5.6 0 11-1.1 16.1-3.2.7 1.3 1.2 2.9 1.7 4.7.5 2.2.8 4 .9 5.8zm-21.6-55.6c-5.1 0-9.5 1.9-13.1 5.6s-5.6 8.8-5.9 15.2c2.2.3 4.5.5 6.7.6s4.2.2 6 .2c6.6 0 11.3-.8 14.3-2.5s4.5-4.5 4.5-8.5c0-3.3-1.1-5.8-3.3-7.7-2.3-2-5.3-2.9-9.2-2.9zm73.4 57.7v-56.3h-10.9c-.2-.8-.3-1.6-.4-2.5-.1-.9-.1-1.7-.1-2.6 0-.9 0-1.7.1-2.5s.2-1.7.4-2.5h10.9v-4.7c0-8.2 2.1-14.4 6.2-18.7s10.1-6.4 17.9-6.4c2.2 0 4.1.1 5.7.3 1.6.2 3.2.5 4.7 1-.4 4-1 7.4-1.9 10.4-.9-.2-1.9-.4-3-.6-1.2-.2-2.6-.3-4.2-.3-2.5 0-4.7.4-6.5 1.2-1.9.8-3.3 2.2-4.3 4.3-1 2.1-1.5 5.2-1.6 9.3v4.3h17c.3 1.6.4 3.4.4 5.3 0 1.6-.1 3.2-.4 4.8h-17v56.3c-.9.1-2 .2-3.2.3-1.2.1-2.2.2-3.2.2-.9 0-1.9-.1-3.2-.2-1.3-.2-2.4-.3-3.4-.4zm42 0V859c.9-.2 1.9-.3 2.8-.4.9-.1 1.8-.1 2.6-.1.9 0 1.9 0 2.9.1.9.1 1.8.2 2.6.4.3 1.3.5 3 .8 5.1.3 2.1.4 3.9.4 5.4 1.8-2.9 4.2-5.5 7.2-7.6 3-2.2 6.8-3.2 11.5-3.2.7 0 1.4 0 2.1.1.7 0 1.4.1 1.9.2.2.8.3 1.6.4 2.5.1.9.1 1.8.1 2.7 0 2-.2 4.1-.6 6.5-.7-.2-1.4-.3-2.1-.3h-1.8c-3 0-5.9.6-8.7 1.8s-5 3.4-6.7 6.6c-1.7 3.2-2.5 7.8-2.5 13.7v33c-.9.2-2 .3-3.2.4-1.2.1-2.2.1-3.2.1-.9 0-1.9 0-3.1-.1-1.2-.2-2.4-.3-3.4-.5zm40.9-33.1c0-6.6 1.1-12.5 3.4-17.7 2.2-5.2 5.7-9.4 10.3-12.5 4.6-3.1 10.4-4.7 17.3-4.7 7 0 12.8 1.5 17.4 4.7 4.6 3.1 8 7.3 10.2 12.5 2.2 5.2 3.4 11.1 3.4 17.7 0 6.5-1.1 12.3-3.4 17.6-2.2 5.3-5.6 9.4-10.2 12.5s-10.4 4.6-17.4 4.6c-6.9 0-12.7-1.5-17.3-4.6-4.6-3.1-8.1-7.2-10.3-12.5-2.2-5.3-3.4-11.1-3.4-17.6zm48.5 0c0-7.7-1.4-13.7-4.3-17.9-2.9-4.3-7.3-6.4-13.1-6.4-5.9 0-10.2 2.1-13.1 6.4-2.9 4.3-4.3 10.2-4.3 17.9 0 7.6 1.4 13.6 4.3 17.9s7.2 6.5 13.1 6.5 10.2-2.2 13.1-6.5c2.8-4.4 4.3-10.3 4.3-17.9zm28.9 33.1V859c.9-.2 1.9-.3 2.8-.4.9-.1 1.8-.1 2.8-.1s1.9 0 2.7.1c.9.1 1.7.2 2.6.4.3 1.3.5 3 .8 5.1.3 2.1.4 3.9.4 5.4 1.6-3 3.9-5.8 7.1-8.3 3.2-2.5 7.3-3.8 12.3-3.8 5.1 0 9.1 1.1 11.9 3.2 2.9 2.1 5 5.1 6.5 8.9 1.8-3 4.3-5.8 7.4-8.3 3.1-2.5 7.1-3.8 12-3.8 7.7 0 13.3 2.2 16.8 6.5s5.2 10.7 5.2 19.2v42.3c-.9.1-2 .2-3.2.3s-2.3.2-3.2.2c-.9 0-1.9-.1-3.1-.2-1.2-.1-2.3-.2-3.2-.3v-38.6c0-6-.9-10.4-2.8-13.4s-4.8-4.5-8.9-4.5c-4.3 0-7.9 1.6-10.6 4.8-2.8 3.2-4.1 7.9-4.1 14.1v37.5c-.9.1-2 .2-3.2.3-1.2.1-2.2.2-3.2.2-.9 0-1.9-.1-3.1-.2-1.2-.1-2.3-.2-3.2-.3v-39.5c0-11.6-3.6-17.3-10.9-17.3-4.3 0-8 1.9-11.1 5.7s-4.6 9.5-4.6 17.2v33.9c-.9.1-2 .2-3.2.3-1.2.1-2.2.2-3.2.2-.9 0-1.9-.1-3.2-.2-1.3 0-2.4-.1-3.3-.2zm198.9-13.6c.9 1.7 1.7 3.5 2.3 5.3s1 3.6 1.3 5.4c-3.5 1.5-7.2 2.7-11.1 3.4s-8 1-12.3 1c-9 0-16.7-1.9-23.2-5.8s-11.5-9.3-14.9-16.4-5.2-15.6-5.2-25.3c0-9.9 1.8-18.5 5.2-25.8 3.5-7.2 8.5-12.9 14.9-16.9 6.4-4 14.1-6 23-6 4.9 0 9.2.3 12.8 1s6.7 1.5 9.4 2.5c-.2 2-.5 3.8-1.1 5.5s-1.2 3.5-2 5.4c-2.6-1-5.2-1.7-7.7-2.1-2.6-.5-6-.7-10.3-.7-9.3 0-16.6 3.2-21.9 9.7-5.3 6.4-7.9 15.6-7.9 27.5 0 12.2 2.8 21.2 8.4 27.1 5.6 5.9 13 8.8 22.3 8.8 3.6 0 6.9-.3 9.8-.9 2.8-.7 5.6-1.5 8.2-2.7zm12.3-19.5c0-6.6 1.1-12.5 3.4-17.7 2.2-5.2 5.7-9.4 10.3-12.5 4.6-3.1 10.4-4.7 17.3-4.7 7 0 12.8 1.5 17.4 4.7 4.6 3.1 8 7.3 10.2 12.5 2.2 5.2 3.4 11.1 3.4 17.7 0 6.5-1.1 12.3-3.4 17.6-2.2 5.3-5.6 9.4-10.2 12.5S2957 927 2950 927c-6.9 0-12.7-1.5-17.3-4.6-4.6-3.1-8.1-7.2-10.3-12.5-2.2-5.3-3.3-11.1-3.3-17.6zm48.4 0c0-7.7-1.4-13.7-4.3-17.9-2.9-4.3-7.3-6.4-13.1-6.4-5.9 0-10.2 2.1-13.1 6.4-2.9 4.3-4.3 10.2-4.3 17.9 0 7.6 1.4 13.6 4.3 17.9s7.2 6.5 13.1 6.5 10.2-2.2 13.1-6.5c2.9-4.4 4.3-10.3 4.3-17.9zm28.9 33.1V859c.9-.2 1.9-.3 2.8-.4.9-.1 1.8-.1 2.8-.1s1.9 0 2.7.1c.9.1 1.7.2 2.6.4.3 1.3.5 3 .8 5.1.3 2.1.4 3.9.4 5.4 1.6-3 3.9-5.8 7.1-8.3 3.2-2.5 7.3-3.8 12.3-3.8 5.1 0 9.1 1.1 11.9 3.2 2.9 2.1 5 5.1 6.5 8.9 1.8-3 4.3-5.8 7.4-8.3 3.1-2.5 7.1-3.8 12-3.8 7.7 0 13.3 2.2 16.8 6.5s5.2 10.7 5.2 19.2v42.3c-.9.1-2 .2-3.2.3s-2.3.2-3.2.2c-.9 0-1.9-.1-3.1-.2-1.2-.1-2.3-.2-3.2-.3v-38.6c0-6-.9-10.4-2.8-13.4s-4.8-4.5-8.9-4.5c-4.3 0-7.9 1.6-10.6 4.8s-4.1 7.9-4.1 14.1v37.5c-.9.1-2 .2-3.2.3-1.2.1-2.2.2-3.2.2-.9 0-1.9-.1-3.1-.2-1.2-.1-2.3-.2-3.2-.3v-39.5c0-11.6-3.6-17.3-10.9-17.3-4.3 0-8 1.9-11.1 5.7s-4.6 9.5-4.6 17.2v33.9c-.9.1-2 .2-3.2.3-1.2.1-2.2.2-3.2.2-.9 0-1.9-.1-3.2-.2-1.2 0-2.3-.1-3.3-.2zm109 30.6v-97c.9-.2 1.8-.3 2.7-.4s1.9-.1 2.7-.1c.9 0 1.8 0 2.7.1s1.9.2 2.7.4c.2.3.3 1.1.5 2.5s.3 2.8.5 4.2c.2 1.4.3 2.3.3 2.7 1.7-2.8 4.2-5.3 7.5-7.5s7.5-3.4 12.7-3.4c5.3 0 9.9 1.2 13.9 3.5s7.2 5.9 9.5 10.8 3.5 11.2 3.5 18.8c0 11.3-3.1 20.2-9.3 26.7s-14.9 9.7-26.2 9.7c-1.9 0-3.8-.2-5.8-.5s-3.7-.6-5.2-1V956c-1 .2-2.1.3-3.3.4-1.2.1-2.2.1-3.2.1-.9 0-1.9 0-3.1-.1-1-.1-2.1-.2-3.1-.4zm12.9-68.4v26.9c1.6.6 3.3 1 5.1 1.3 1.8.3 4 .4 6.7.4 6.1 0 11.2-2 15.2-6.1s6-10.4 6-19c0-6.9-1.3-12.4-3.8-16.4s-6.7-6.1-12.5-6.1c-2.9 0-5.6.7-8.1 2-2.6 1.3-4.6 3.4-6.2 6.2-1.6 2.8-2.4 6.4-2.4 10.8zm97.4-3.5v-2.5c0-5.1-1.3-8.6-3.9-10.6-2.6-2-6.4-3-11.2-3-2.9 0-5.7.2-8.4.7-2.7.5-5.3 1.1-7.8 1.9-1.6-2.8-2.5-6.3-2.5-10.2 2.9-1 6.2-1.7 9.7-2.2s6.9-.8 10.2-.8c8.6 0 15.2 2 19.7 6s6.7 10.2 6.7 18.8v41.6c-2.9.7-6.6 1.4-10.9 2.1-4.4.7-8.8 1.1-13.3 1.1-8.4 0-15.1-1.6-20.1-4.9-5-3.3-7.5-8.7-7.5-16.3 0-5 1.3-9.2 3.9-12.4 2.6-3.3 6-5.7 10.3-7.4s8.9-2.5 13.8-2.5c2.8 0 5.1.1 6.9.2 1.8.1 3.2.3 4.4.4zm0 31.2v-21.1c-1.3-.2-2.9-.3-4.9-.5-2-.2-3.7-.3-5.1-.3-5.3 0-9.3 1-12.2 3-2.9 2-4.3 5-4.3 9.1 0 3.5.8 6 2.4 7.5 1.6 1.5 3.5 2.5 5.8 3s4.4.7 6.5.7c4.2-.1 8.1-.5 11.8-1.4zm30.4 10.1V859c.9-.2 1.9-.3 2.8-.4.9-.1 1.8-.1 2.6-.1.9 0 1.9 0 2.9.1.9.1 1.8.2 2.6.4.3 1.3.5 3 .8 5.1.3 2.1.4 3.9.4 5.4 1.8-2.9 4.2-5.5 7.2-7.6 3-2.2 6.8-3.2 11.5-3.2.7 0 1.4 0 2.1.1.7 0 1.4.1 1.9.2.2.8.3 1.6.4 2.5.1.9.1 1.8.1 2.7 0 2-.2 4.1-.6 6.5-.7-.2-1.4-.3-2.1-.3h-1.8c-3 0-5.9.6-8.7 1.8s-5 3.4-6.7 6.6c-1.7 3.2-2.5 7.8-2.5 13.7v33c-.9.2-2 .3-3.2.4-1.2.1-2.2.1-3.2.1-.9 0-1.9 0-3.1-.1-1.2-.2-2.4-.3-3.4-.5zm94.5-2.1c-5.5 2.4-11.8 3.6-18.8 3.6-8.3 0-15-1.5-20.1-4.4-5.1-2.9-8.9-6.9-11.3-12-2.4-5-3.6-10.7-3.6-17 0-6.8 1.2-13 3.8-18.4 2.5-5.4 6.2-9.8 11.1-13 4.9-3.2 11-4.8 18.1-4.8 7.8 0 13.8 2 18 5.9s6.3 9 6.3 15.3c0 4.9-1.3 8.9-4 11.9s-6.3 5.2-10.9 6.5c-4.6 1.3-9.8 2-15.7 2-2.2 0-4.6-.1-7.1-.3s-4.7-.4-6.7-.7c.7 6.5 3 11.1 6.9 13.9 3.9 2.8 9 4.2 15.3 4.2 5.6 0 11-1.1 16.1-3.2.7 1.3 1.2 2.9 1.7 4.7.6 2.2.9 4 .9 5.8zm-21.6-55.6c-5.1 0-9.5 1.9-13.1 5.6s-5.6 8.8-5.9 15.2c2.2.3 4.5.5 6.7.6s4.2.2 6 .2c6.6 0 11.3-.8 14.3-2.5s4.5-4.5 4.5-8.5c0-3.3-1.1-5.8-3.3-7.7-2.3-2-5.3-2.9-9.2-2.9zm71.4 39.2v-37.7h-10.1l-.5-1.8 22.3-24.9h1V859h16.8c.3 1.5.5 3.1.5 4.9 0 .9 0 1.8-.1 2.7-.1.9-.2 1.8-.4 2.7h-16.8v30.3c0 4.8.3 8.3.8 10.7.6 2.4 1.6 4 3 4.7 1.4.8 3.4 1.2 5.9 1.2 1.5 0 2.9-.1 4.1-.3 1.3-.2 2.5-.5 3.5-.7.6 1.6 1 3.4 1.1 5.2.1 1.9.2 3.5.2 4.9-1.6.3-3.4.7-5.4.9-1.9.3-4 .4-6.1.4-6.1 0-11-1.5-14.5-4.5-3.5-3.2-5.3-8.2-5.3-15.2zm41.8 18.5v-94.9c.9-.2 2-.3 3.2-.4s2.2-.1 3.1-.1c.9 0 2 0 3.2.1s2.3.2 3.2.4v38.6c1-1.6 2.4-3.4 4.2-5.2s4-3.3 6.7-4.6c2.7-1.2 5.9-1.9 9.4-1.9 7.5 0 13.1 2.2 16.8 6.6 3.7 4.4 5.6 10.8 5.6 19.3v42.1c-.9.2-2 .3-3.2.4-1.2.1-2.2.1-3.2.1-.9 0-1.9 0-3.1-.1-1.2-.1-2.3-.2-3.2-.4v-38.6c0-11.9-4.1-17.9-12.3-17.9-3.1 0-6 .7-8.7 2.2-2.7 1.5-4.9 3.8-6.5 7.1-1.6 3.3-2.5 7.6-2.5 13.1v34c-.9.2-2 .3-3.2.4s-2.3.1-3.2.1c-.9 0-1.9 0-3.1-.1-1.1 0-2.2-.1-3.2-.3zm123.3-2.1c-5.5 2.4-11.8 3.6-18.8 3.6-8.3 0-15-1.5-20.1-4.4-5.1-2.9-8.9-6.9-11.3-12-2.4-5-3.6-10.7-3.6-17 0-6.8 1.2-13 3.8-18.4 2.5-5.4 6.2-9.8 11.1-13 4.9-3.2 11-4.8 18.1-4.8 7.8 0 13.8 2 18 5.9s6.3 9 6.3 15.3c0 4.9-1.3 8.9-4 11.9s-6.3 5.2-10.9 6.5c-4.6 1.3-9.8 2-15.7 2-2.2 0-4.6-.1-7.1-.3s-4.7-.4-6.7-.7c.7 6.5 3 11.1 6.9 13.9 3.9 2.8 9 4.2 15.3 4.2 5.6 0 11-1.1 16.1-3.2.7 1.3 1.2 2.9 1.7 4.7.6 2.2.8 4 .9 5.8zm-21.6-55.6c-5.1 0-9.5 1.9-13.1 5.6s-5.6 8.8-5.9 15.2c2.2.3 4.5.5 6.7.6s4.2.2 6 .2c6.6 0 11.3-.8 14.3-2.5s4.5-4.5 4.5-8.5c0-3.3-1.1-5.8-3.3-7.7-2.3-2-5.3-2.9-9.2-2.9zm79.2 57.7c-.7.1-1.7.2-2.9.3s-2.5.2-3.7.2c-1.6 0-2.9-.1-3.9-.2s-1.9-.2-2.6-.3l9.3-93.1c.8-.2 1.8-.3 3.2-.4 1.3-.1 2.7-.1 4.2-.1s2.9 0 4.3.1 2.5.2 3.2.4l25.6 75.6 24.1-75.6c.7-.2 1.7-.3 3-.4 1.3-.1 2.7-.1 4.2-.1 1.6 0 3.1 0 4.5.1s2.4.2 3.1.4l9.4 93.1c-.7.1-1.6.2-2.7.3-1.1.1-2.4.2-3.8.2s-2.7-.1-3.9-.2c-1.2-.1-2.2-.2-2.9-.3l-6.2-71.1-23.9 71.2c-1.4.3-3.4.4-6.1.4-1.1 0-2.2 0-3.2-.1s-1.9-.2-2.5-.3l-23.9-70.2-5.9 70.1zm136.7-41.3v-2.5c0-5.1-1.3-8.6-3.9-10.6-2.6-2-6.4-3-11.2-3-2.9 0-5.7.2-8.4.7-2.7.5-5.3 1.1-7.8 1.9-1.6-2.8-2.5-6.3-2.5-10.2 2.9-1 6.2-1.7 9.7-2.2s6.9-.8 10.2-.8c8.6 0 15.2 2 19.7 6s6.7 10.2 6.7 18.8v41.6c-2.9.7-6.6 1.4-10.9 2.1-4.4.7-8.8 1.1-13.3 1.1-8.4 0-15.1-1.6-20.1-4.9-5-3.3-7.5-8.7-7.5-16.3 0-5 1.3-9.2 3.9-12.4 2.6-3.3 6-5.7 10.3-7.4s8.9-2.5 13.8-2.5c2.8 0 5.1.1 6.9.2 1.8.1 3.3.3 4.4.4zm0 31.2v-21.1c-1.3-.2-2.9-.3-4.9-.5-2-.2-3.7-.3-5.1-.3-5.3 0-9.3 1-12.2 3-2.9 2-4.3 5-4.3 9.1 0 3.5.8 6 2.4 7.5 1.6 1.5 3.5 2.5 5.8 3s4.4.7 6.5.7c4.3-.1 8.2-.5 11.8-1.4zm30.5 10.1V859c.9-.2 1.9-.3 2.8-.4.9-.1 1.8-.1 2.6-.1.9 0 1.9 0 2.9.1.9.1 1.8.2 2.6.4.3 1.3.5 3 .8 5.1.3 2.1.4 3.9.4 5.4 1.8-2.9 4.2-5.5 7.2-7.6 3-2.2 6.8-3.2 11.5-3.2.7 0 1.4 0 2.1.1.7 0 1.4.1 1.9.2.2.8.3 1.6.4 2.5.1.9.1 1.8.1 2.7 0 2-.2 4.1-.6 6.5-.7-.2-1.4-.3-2.1-.3h-1.8c-3 0-5.9.6-8.7 1.8s-5 3.4-6.7 6.6c-1.7 3.2-2.5 7.8-2.5 13.7v33c-.9.2-2 .3-3.2.4-1.2.1-2.2.1-3.2.1-.9 0-1.9 0-3.1-.1-1.3-.2-2.4-.3-3.4-.5zm52.5.5c-1.4 0-2.6-.1-3.7-.2s-2-.2-2.6-.3v-94.9c.9-.2 2-.3 3.2-.4s2.2-.1 3.1-.1c.9 0 2 0 3.2.1s2.3.2 3.2.4v60.2l25.1-31.7c1-.2 2-.3 3.1-.4 1.1-.1 2.4-.1 3.8-.1 1.5 0 3.1 0 4.6.1 1.5.1 2.7.2 3.7.4l-26.5 31.5 29.4 35c-1 .2-2.2.3-3.6.4-1.5.1-2.9.1-4.4.1-2.9 0-5.3-.2-7.2-.5l-27.8-34v34c-.6.1-1.5.2-2.8.3-1.3.1-2.5.1-3.8.1zm106.5-2.6c-5.5 2.4-11.8 3.6-18.8 3.6-8.3 0-15-1.5-20.1-4.4-5.1-2.9-8.9-6.9-11.3-12-2.4-5-3.6-10.7-3.6-17 0-6.8 1.2-13 3.8-18.4 2.5-5.4 6.2-9.8 11.1-13 4.9-3.2 11-4.8 18.1-4.8 7.8 0 13.8 2 18 5.9s6.3 9 6.3 15.3c0 4.9-1.3 8.9-4 11.9s-6.3 5.2-10.9 6.5c-4.6 1.3-9.8 2-15.7 2-2.2 0-4.6-.1-7.1-.3s-4.7-.4-6.7-.7c.7 6.5 3 11.1 6.9 13.9s9 4.2 15.3 4.2c5.6 0 11-1.1 16-3.2.7 1.3 1.2 2.9 1.7 4.7.7 2.2.9 4 1 5.8zm-21.6-55.6c-5.1 0-9.5 1.9-13.1 5.6s-5.6 8.8-5.9 15.2c2.2.3 4.5.5 6.7.6 2.2.1 4.2.2 6 .2 6.6 0 11.3-.8 14.3-2.5s4.5-4.5 4.5-8.5c0-3.3-1.1-5.8-3.3-7.7-2.3-2-5.3-2.9-9.2-2.9zm42.1 39.2v-37.7h-10.1l-.5-1.8 22.3-24.9h1V859h16.8c.3 1.5.5 3.1.5 4.9 0 .9 0 1.8-.1 2.7-.1.9-.2 1.8-.4 2.7h-16.8v30.3c0 4.8.3 8.3.8 10.7.6 2.4 1.5 4 3 4.7 1.4.8 3.4 1.2 5.9 1.2 1.5 0 2.9-.1 4.1-.3s2.5-.5 3.5-.7c.6 1.6 1 3.4 1.1 5.2.1 1.9.2 3.5.2 4.9-1.6.3-3.4.7-5.4.9-1.9.3-4 .4-6.1.4-6.1 0-11-1.5-14.5-4.5-3.6-3.2-5.3-8.2-5.3-15.2zM977.5 651.5c-10.6 1.8-21.1 2.7-31.4 2.7-10.3 0-20.8-.9-31.4-2.7V422.8c4.1-.9 8.2-1.5 12.4-2 4.1-.4 8.7-.7 13.7-.7s9.4.2 13.3.7c3.8.4 7.8 1.1 11.9 2 1.8 3 3.2 8 4.4 15 1.2 7.1 2.1 12.7 2.7 16.8 4.7-8.9 12.4-17.2 23-25.2s24-11.9 40.3-11.9c35.4 0 58.2 13.6 68.6 40.7 5.9-10.9 14.2-20.4 25-28.5s24.4-12.2 40.9-12.2c25.9 0 45.1 7.1 57.3 21.5 12.2 14.3 18.4 36.6 18.4 67v145.5c-10.6 1.8-21.1 2.7-31.4 2.7-10.3 0-20.8-.9-31.4-2.7V522.3c0-15.9-2-28.2-6-36.7-4-8.5-12-12.8-24.1-12.8-6.5 0-12.9 1.4-19.2 4.2-6.3 2.8-11.7 8.2-15.9 16.1-4.3 8-6.4 19.6-6.4 34.9v123.4c-10.6 1.8-21.1 2.7-31.4 2.7-10.3 0-20.8-.9-31.4-2.7V522.3c0-15.9-2-28.2-6-36.7-4-8.5-12-12.8-24.1-12.8-6.8 0-13.3 1.5-19.7 4.4-6.3 3-11.6 8.6-15.7 17s-6.2 20.9-6.2 37.4l-.2 119.9zm493.9-8c-11.5 4.4-23.7 7.7-36.7 10s-26 3.3-38.9 3.3c-28.6 0-51.8-5-69.4-15-17.7-10-30.7-23.8-38.9-41.4-8.3-17.5-12.4-37.2-12.4-59.1 0-23.9 4.5-45.1 13.5-63.7s22.2-33.2 39.6-44c17.4-10.8 38.6-16.1 63.7-16.1 28.9 0 51.6 7 68.1 21 16.5 14 24.8 32.7 24.8 56 0 17.1-4.6 31-13.9 41.8s-21.7 18.6-37.2 23.5-32.5 7.3-51.1 7.3c-15.6 0-30.4-1-44.2-3.1 2.7 15 9.4 26 20.1 32.7 10.8 6.8 24.7 10.2 41.8 10.2 19.5 0 39.1-3.7 58.8-11.1 3.2 5.9 6 13 8.4 21.2 2.3 8.2 3.6 17.1 3.9 26.5zm-80.5-178.3c-13.6 0-25.4 4.6-35.6 13.9-10.2 9.3-16.2 24-17.9 44 11.2 1.5 24.6 2.2 40.3 2.2 8 0 15.6-1 23-2.9s13.4-5.2 18.1-9.7c4.7-4.6 7.1-10.8 7.1-18.8 0-8.5-3.1-15.5-9.3-20.8-6.2-5.2-14.8-7.9-25.7-7.9zm310.7 178.3c-11.5 4.4-23.7 7.7-36.7 10s-26 3.3-38.9 3.3c-28.6 0-51.8-5-69.4-15-17.7-10-30.7-23.8-38.9-41.4-8.3-17.5-12.4-37.2-12.4-59.1 0-23.9 4.5-45.1 13.5-63.7s22.2-33.2 39.6-44c17.4-10.8 38.6-16.1 63.7-16.1 28.9 0 51.6 7 68.1 21 16.5 14 24.8 32.7 24.8 56 0 17.1-4.6 31-13.9 41.8-9.3 10.8-21.7 18.6-37.2 23.5s-32.5 7.3-51.1 7.3c-15.6 0-30.4-1-44.2-3.1 2.7 15 9.4 26 20.1 32.7 10.8 6.8 24.7 10.2 41.8 10.2 19.5 0 39.1-3.7 58.8-11.1 3.2 5.9 6 13 8.4 21.2 2.2 8.2 3.6 17.1 3.9 26.5zm-80.5-178.3c-13.6 0-25.4 4.6-35.6 13.9-10.2 9.3-16.2 24-17.9 44 11.2 1.5 24.6 2.2 40.3 2.2 8 0 15.6-1 23-2.9s13.4-5.2 18.1-9.7c4.7-4.6 7.1-10.8 7.1-18.8 0-8.5-3.1-15.5-9.3-20.8-6.3-5.2-14.8-7.9-25.7-7.9zm189.4 186.7c-5.3.9-10.6 1.5-15.9 1.8-5.3.3-10.5.4-15.5.4s-10.1-.2-15.3-.4c-5.2-.3-10.6-.9-16.2-1.8V422.8c4.4-.9 8.6-1.5 12.6-2s8.3-.7 13.1-.7c4.4 0 8.8.3 13.1.9 4.3.6 8.5 1.3 12.6 2.2 1.8 3 3.2 8 4.4 15.3 1.2 7.2 2.1 12.9 2.7 17 6.2-8.9 14-17 23.4-24.3 9.4-7.4 20.5-11.1 33.2-11.1 4.1 0 8 .1 11.5.4 3.5.3 6.8.7 9.7 1.3.6 3 1 6.4 1.3 10.2.3 3.8.4 7.8.4 11.9 0 5-.2 10.5-.7 16.4s-1.3 11.5-2.4 16.8c-3.2-.6-6.9-.9-10.8-.9h-7.3c-5 0-10.6.6-16.8 1.8s-12.1 3.8-17.7 8c-5.6 4.1-10.2 10.7-13.9 19.7-3.7 9-5.5 21.5-5.5 37.4v108.8zm103.4-.4V328.1c10.3-1.8 20.6-2.6 31-2.6 10.9 0 21.4.9 31.4 2.6v201.3l65-106.6c11.5-1.8 23.3-2.6 35.4-2.6 5.6 0 11.5.2 17.7.7 6.2.4 11.9 1.1 17.2 2l-70.8 106.6 80.5 122.1c-5.9.9-12.2 1.5-18.8 2-6.6.4-12.8.7-18.4.7-10.6 0-21.7-.9-33.2-2.7l-74.8-117.7v117.7c-10 1.8-20.5 2.7-31.4 2.7-10.2-.2-20.5-1.1-30.8-2.8zm408.3-8.4c-10.3 3.2-22.9 6.3-37.6 9.3-14.8 2.9-31.4 4.4-50 4.4-20.1 0-37.8-2.5-53.1-7.5s-27.3-13.1-35.8-24.3c-8.6-11.2-12.8-26.2-12.8-45.1 0-14.2 2.9-26 8.9-35.6 5.9-9.6 13.7-17.2 23.4-23 9.7-5.8 20.5-9.9 32.3-12.4 11.8-2.5 23.6-3.8 35.4-3.8 8.9 0 18.3.4 28.3 1.3v-5.3c0-14.2-4.4-23.4-13.3-27.6-8.9-4.3-20.6-6.4-35.4-6.4-15.6 0-32.6 3.1-50.9 9.3-4.1-7.7-7.2-14.9-9.3-21.7-2.1-6.8-3.1-14.9-3.1-24.3 13-4.4 25.9-7.7 38.9-9.7 13-2.1 25.1-3.1 36.3-3.1 30.7 0 54.6 7.4 71.9 22.1 17.2 14.8 25.9 38.3 25.9 70.8v132.6zm-61-96.5c-8-1.5-15.5-2.2-22.6-2.2-14.4 0-25.9 2.6-34.3 7.7-8.4 5.2-12.6 13.5-12.6 25 0 10 2.6 17.2 8 21.5s11.4 6.9 18.4 8c6.9 1 13.1 1.5 18.4 1.5 4.4 0 8.9-.4 13.3-1.1 4.4-.7 8.2-1.4 11.5-2v-58.4zm86.5-76.1l-2.2-8.9 82.7-105.7h10.2v66.8h53.5c.9 4.4 1.5 8.4 1.8 11.9.3 3.5.4 7.2.4 11.1 0 4.1-.1 8.1-.4 11.9-.3 3.8-.9 8.1-1.8 12.8h-53.5v89.8c0 18 2.9 29.8 8.6 35.4 5.8 5.6 14.1 8.4 25 8.4 4.4 0 8.8-.4 13.1-1.1 4.3-.7 8-1.4 11.3-2 2.1 5.6 3.5 11.4 4.4 17.5.9 6 1.3 11.4 1.3 16.2 0 3.2-.1 6-.2 8.2-.1 2.2-.4 4.4-.7 6.4-6.8 1.5-13.6 2.7-20.6 3.5-6.9.9-14.1 1.3-21.5 1.3-26.8 0-47.3-6.3-61.5-18.8-14.2-12.5-21.2-33-21.2-61.3V470.5h-28.7zm225 291.6c-11.2 0-23.3-1.8-36.3-5.3 0-10.9 2.4-20.9 7.1-30.1 8 2.9 16.8 4.4 26.5 4.4 8.9 0 16-2.5 21.5-7.5 5.4-5 10.5-14.3 15.3-27.9l13.7-38.5-95.1-232.2c5.3-.6 12.1-.9 20.4-.9 4.1 0 8.2.1 12.4.2 4.1.1 7.1.4 8.9.7l70.8 186.7 65.5-186.7c1.8-.3 4.4-.5 8-.7s7.2-.2 11.1-.2c8.9 0 15.3.3 19.5.9l-106 283.1c-7.4 19.8-15.9 33.7-25.4 41.8-9.6 8.1-22.3 12.2-37.9 12.2zm279.5-105.3c-23 0-42.2-5.2-57.5-15.7-15.3-10.5-26.8-24.7-34.5-42.7s-11.5-38-11.5-60.2c0-22.1 3.8-42.2 11.5-60.2s19.2-32.2 34.5-42.7 34.5-15.7 57.5-15.7 42.2 5.2 57.5 15.7c15.3 10.5 26.8 24.7 34.3 42.7s11.3 38 11.3 60.2c0 22.1-3.8 42.2-11.3 60.2-7.5 18-18.9 32.2-34.3 42.7-15.3 10.4-34.5 15.7-57.5 15.7zm0-30.5c21.8 0 38.1-7.8 48.9-23.5 10.8-15.6 16.1-37.2 16.1-64.6 0-27.1-5.4-48.5-16.1-64.1-10.8-15.6-27.1-23.5-48.9-23.5-21.8 0-38.1 7.8-48.9 23.5-10.8 15.6-16.1 37-16.1 64.1 0 27.4 5.4 49 16.1 64.6 10.8 15.7 27.1 23.5 48.9 23.5zm245.1 30.5c-14.2 0-27.5-1.3-40-4s-23.5-7.7-33-15-16.9-17.9-22.3-31.6c-5.5-13.7-8.2-31.6-8.2-53.8V425c2.6-.3 5.8-.6 9.5-.9 3.7-.3 6.6-.4 8.6-.4 2.6 0 5.8.1 9.3.4 3.5.3 6.6.6 9.3.9v125.6c0 20.1 2.6 35.5 8 46.5 5.3 10.9 13 18.4 23 22.3 10 4 22.3 6 36.7 6 17.4 0 31.6-1.8 42.5-5.3V425c2.4-.3 5.4-.6 9.1-.9 3.7-.3 6.7-.4 9.1-.4 2.4 0 5.3.1 8.9.4 3.5.3 6.6.6 9.3.9v219.9c-10.6 3-22.9 5.7-36.7 8.2-14.1 2.4-28.4 3.7-43.1 3.7zm148.2-4c-2.4 0-5.4-.2-9.1-.4-3.7-.3-6.9-.6-9.5-.9V425c2.9-.3 5.8-.6 8.4-.9 2.6-.3 5.2-.4 7.5-.4 2.9 0 5.8.1 8.4.4 2.6.3 5.2.6 7.5.9.9 4.7 1.6 10.7 2.2 17.9.6 7.2.9 13.6.9 19.2 5.9-10.3 14.1-19.2 24.6-26.8 10.5-7.5 24-11.3 40.5-11.3 2.1 0 4.1.1 6.2.2 2.1.1 4 .4 5.8.7.6 2.4 1 4.9 1.3 7.7.3 2.8.4 5.5.4 8.2 0 3-.1 5.9-.4 8.9-.3 3-.7 5.9-1.3 8.9-2.4-.3-4.5-.4-6.4-.4h-5.1c-11.8 0-22.6 2.4-32.3 7.3s-17.4 13-23 24.3c-5.6 11.4-8.4 27.1-8.4 47.1v114.6c-2.6.3-5.8.6-9.3.9-3.6.3-6.5.4-8.9.4zm193.3-92.5c0 18 2.1 29.7 6.4 35.2 4.3 5.5 11.6 8.2 21.9 8.2 2.4 0 4.9-.2 7.7-.4s5.5-.7 8.2-1.3c3.2 12.4 4.9 24.2 4.9 35.4v6.4c0 1.9-.3 4.1-.9 6.4-4.7 1.5-10.4 2.5-17 3.1-6.6.6-12.8.9-18.4.9-22.1 0-40.2-6.2-54.2-18.6-14-12.4-21-32.9-21-61.5v-246c10.6-1.8 21.1-2.6 31.4-2.6 10 0 20.4.9 31 2.6v232.2zm148.9 91.2c-10.6 1.8-20.9 2.7-31 2.7-9.7 0-19.9-.9-30.5-2.7v-181h-29.6c-.9-3.8-1.6-7.9-2-12.2-.4-4.3-.7-8.3-.7-12.2 0-8.2.9-16.1 2.6-23.5h91.1v228.9zm-70.8-267.2c-1.8-10.3-2.6-20.2-2.6-29.6 0-9.7.9-19.6 2.6-29.6 5-.9 10.4-1.5 16.1-2s11-.7 15.7-.7c5 0 10.5.2 16.4.7 5.9.4 11.4 1.1 16.4 2 .9 5 1.5 10 1.8 14.8.3 4.9.4 9.8.4 14.8 0 4.7-.1 9.6-.4 14.6-.3 5-.9 10-1.8 15-5 .9-10.4 1.5-16.1 1.8-5.8.3-11.1.4-16.1.4-4.7 0-10-.1-15.9-.4-6-.3-11.5-.9-16.5-1.8zm205.8 267.2c-10.6 1.8-20.9 2.7-31 2.7-10.3 0-20.8-.9-31.4-2.7v-181H3624c-.9-4.7-1.5-9-1.8-12.8-.3-3.8-.4-7.8-.4-11.9 0-3.8.1-7.5.4-11.1s.9-7.5 1.8-11.9h36.3v-11.1c0-28.3 8.2-50.2 24.8-65.7 16.5-15.5 38.2-23.2 65-23.2 8.9 0 16.3.4 22.3 1.1 6 .7 12.6 2.1 19.7 4.2-.6 9.7-1.6 18.5-2.9 26.3-1.3 7.8-3.5 15.6-6.4 23.2-3.2-.6-6.6-1.2-10.2-2-3.5-.7-8.3-1.1-14.2-1.1-10.3 0-18.9 2.4-25.7 7.3-6.8 4.9-10.2 15.3-10.2 31.2v9.7h53.1c.9 4.7 1.5 9 1.8 12.8.3 3.8.4 7.8.4 11.9 0 3.8-.1 7.5-.4 11.1-.3 3.5-.9 7.5-1.8 11.9h-53.1l.2 181.1zm268.4-8c-11.5 4.4-23.7 7.7-36.7 10s-26 3.3-38.9 3.3c-28.6 0-58.2-5-75.9-15-17.7-10-30.7-23.8-38.9-41.4-8.3-17.5-12.4-37.2-12.4-59.1 0-23.9 4.5-45.1 13.5-63.7s22.2-33.2 39.6-44c17.4-10.8 38.6-16.1 63.7-16.1 28.9 0 58 7 74.6 21 16.5 14 24.8 32.7 24.8 56 0 17.1-4.6 31-13.9 41.8s-21.7 18.6-37.2 23.5-39 7.3-57.5 7.3c-15.6 0-30.4-1-44.2-3.1 2.6 15 9.4 26 20.1 32.7 10.8 6.8 31.1 10.2 48.2 10.2 19.5 0 39.1-3.7 58.8-11.1 3.2 5.9 6 13 8.4 21.2 2.3 8.2 3.6 17.1 3.9 26.5zm-86.9-178.3c-13.6 0-25.4 4.6-35.6 13.9-10.2 9.3-16.1 24-17.9 44 11.2 1.5 24.6 2.2 40.3 2.2 8 0 22.1-1 29.4-2.9 7.4-1.9 13.4-5.2 18.1-9.7 4.7-4.6 7.1-10.8 7.1-18.8 0-8.5-3.1-15.5-9.3-20.8-6.2-5.2-21.2-7.9-32.1-7.9z" fill="#fff"/><ellipse cx="409" cy="640.9" rx="400" ry="399.9" fill="#f5f5f5"/><linearGradient id="SVGID_1_" gradientUnits="userSpaceOnUse" x1="189.145" y1="554.62" x2="651.149" y2="902.766" gradientTransform="matrix(1 0 0 -1 0 1279.276)"><stop offset="0" stop-color="#39261d"/><stop offset=".659" stop-color="#e0b585"/><stop offset=".751" stop-color="#ddb283"/><stop offset=".825" stop-color="#d3a87b"/><stop offset=".893" stop-color="#c2986f"/><stop offset=".957" stop-color="#aa815d"/><stop offset=".999" stop-color="#966d4e"/></linearGradient><path d="M674.5 473.2c-12.6 15.6-19.5 15-19.5 15s-7.3 19.9-20.2 35.5c-6.5 7.8-15.8 18.3-25 28.1-9.7 10.3-19.2 20-25.3 25.2-6.3 5.4-23.7 25.6-39.2 47.7-13.3 18.8-25.3 39-27.9 52.4-.5 2.7.2 5.6 2.1 7.6 2.5 2.6 5.9 2.6 6.2 2.6-.8.6-38.5 29.1-32 77.1 3.7 22.2 8.5 24.7 8.5 24.7s-57.9-11.7-105.7 16.1c-39-16.7-82.3-25.5-116-30.3s-57.5-5.3-57.5-5.3c-2.6-10.2-8.8-40.3-43.8-68.7-31.7-25.8-83.5-99.9-50.9-188.5s117.6-129 153.1-141c45-15.2 97.2-22.6 115.3-29.8 0 0 1.8-.7 4.5-1.8 7.1-2.8 20.2-8.1 24.5-10.5 5.9-3.5 9.6-1.2 11.8 5.4 2.2 6.6 37.5 54.7 77.2 60.3h.3c39.8 5.4 100.9-4.8 107.6-5.2 6.7-.5 34.2-4 50.5 16 16.4 20 13.9 51.8 1.4 67.4z" fill="url(#SVGID_1_)"/><linearGradient id="SVGID_00000147197182201785226620000011349227457415858319_" gradientUnits="userSpaceOnUse" x1="459.832" y1="754.277" x2="204.263" y2="531.146" gradientTransform="matrix(1 0 0 -1 0 1279.276)"><stop offset="0" stop-color="#e0b58b" stop-opacity="0"/><stop offset=".225" stop-color="#a98565" stop-opacity=".374"/><stop offset=".479" stop-color="#71543e" stop-opacity=".796"/><stop offset=".602" stop-color="#5b412f"/><stop offset=".623" stop-color="#573d2d"/><stop offset=".802" stop-color="#38241b"/><stop offset=".902" stop-color="#2c1a14"/><stop offset=".946" stop-color="#20100c"/><stop offset=".994" stop-color="#170906"/></linearGradient><path d="M396.5 805.3c47.8-27.8 105.7-16.1 105.7-16.1s-4.9-2.5-8.5-24.7c-6.6-48 31.1-76.5 32-77.1-.2 0-3.7 0-6.2-2.6-1.9-2-2.7-4.8-2.1-7.6 2.6-13.4 14.6-33.6 27.9-52.4.2-.3.5-.7.7-1l-16.7-14c-7.5-6.4-18.2-10.1-27.2-10.1-7.6 0-15.2 2.1-21.8 6.1-4.8 2.9-9.1 6.9-12.6 11.8-14.8 18.4-33.7 33.4-56.5 40.8-.7.2-1.4-.5-1.2-1.2 1.2-3.8 2.5-7.5 3.8-11.3-24.9 18.7-52.7 39-85 39.4-.9 0-1.3-1.1-.7-1.7 5.6-5.6 11-11.2 15.5-17.7-22.2 9.7-45.5 20.4-70.3 16.1-.9-.2-.8-1.3-.2-1.8 6.5-4.8 12.7-9.9 18.4-15.4-88.2 8.7-175.1-15.7-163.4-151.1v.1c-.4 1.2-.8 2.3-1.2 3.5-29.1 86.5 21.4 158.5 52.5 183.8 35 28.5 41.2 58.5 43.8 68.7 0 0 23.9.6 57.5 5.3s76.9 13.5 115.8 30.2z" fill="url(#SVGID_00000147197182201785226620000011349227457415858319_)"/><radialGradient id="SVGID_00000018203414394180989090000004837853294433417915_" cx="746.269" cy="1500.091" r="242.41" gradientTransform="matrix(.9816 -.191 -.1382 -.7102 117.654 1654.723)" gradientUnits="userSpaceOnUse"><stop offset=".208" stop-color="#5b3622"/><stop offset=".451" stop-color="#5d3824" stop-opacity=".692"/><stop offset=".582" stop-color="#65402a" stop-opacity=".528"/><stop offset=".685" stop-color="#734d35" stop-opacity=".397"/><stop offset=".775" stop-color="#865f44" stop-opacity=".283"/><stop offset=".855" stop-color="#9f7758" stop-opacity=".182"/><stop offset=".928" stop-color="#bd946f" stop-opacity=".09"/><stop offset=".995" stop-color="#e1b68b" stop-opacity=".004"/><stop offset=".999" stop-color="#e3b88d" stop-opacity="0"/></radialGradient><path d="M570.6 512.5s-21 0-33.8-1.1c-12.8-1.1-46.6-4.8-59.6-2.6-13 2.2-25.7 3.8-39.6 17.5-13.9 13.7-44.3 42.2-44.8 49.3-.5 7.1 29.8 98.3 152.6 49h.1c15.5-22 32.8-42.1 39.1-47.5 6.1-5.3 15.7-14.9 25.3-25.2 9.2-9.8 18.5-20.3 25-28.1 12.9-15.6 20.2-35.5 20.2-35.5-3.8 2.4-37 24.2-84.5 24.2z" fill="url(#SVGID_00000018203414394180989090000004837853294433417915_)"/><linearGradient id="SVGID_00000165202454588222862760000001549060192479250585_" gradientUnits="userSpaceOnUse" x1="167.614" y1="-7815.823" x2="306.868" y2="-7794.185" gradientTransform="translate(0 8327.501)"><stop offset=".096" stop-color="#200d05" stop-opacity=".8"/><stop offset=".886" stop-color="#200d05" stop-opacity="0"/></linearGradient><path d="M238 551.2c-7.6-10.1-12.9-23.7-11.2-36.5-4.2 2.3-8.2 4.8-12.5 7-.6.3-1.5-.1-1.5-.8.9-12.5 7.4-22.8 11.4-34.3-5.6.9-11 2.1-16.5 3.7-.8.2-1.6-.7-1.1-1.4 13.1-20 35.6-33.2 58-40.9 1.6-3.1 2.4-6.7 2-8.6l-.1-.3c-6.3-24.7-57.9-3.7-82.1 25-22.9 27.2-28.9 63.4-22 93.7 7.1 31.4 28.1 56.6 58.2 59.1 6.7.6 13.5.2 20-1.2 0 0 10.1-3 14.6-5.3 13.5-7.1 22.6-24 17.4-41-12.5-5-25.8-6.5-34.6-18.2z" fill="url(#SVGID_00000165202454588222862760000001549060192479250585_)"/><linearGradient id="SVGID_00000139993374446677615630000002348310721700767152_" gradientUnits="userSpaceOnUse" x1="324.047" y1="860.554" x2="486.169" y2="890.443" gradientTransform="matrix(1 0 0 -1 0 1279.276)"><stop offset="0" stop-color="#5b331f" stop-opacity="0"/><stop offset="1" stop-color="#5a321e"/></linearGradient><path d="M341.8 401.3c3.3 0 6.6-.2 9.9-.7.8-.1 1.5.6 1.1 1.4-8.8 18.3-16.5 35.7-13.1 56.5 1.4 8.6 4.4 17.9 9.2 25.8.7.3 1.4.6 2.1.8 15.7-67.2 140.7-25.9 164-90.1h-.2c-39.7-5.6-75-53.7-77.2-60.3-2.2-6.6-5.8-8.9-11.8-5.4-4.2 2.5-17.4 7.8-24.5 10.5-25 12.6-46.7 36.6-59.5 61.5z" fill="url(#SVGID_00000139993374446677615630000002348310721700767152_)"/><linearGradient id="SVGID_00000103229021181139715140000009015115311861362858_" gradientUnits="userSpaceOnUse" x1="391.273" y1="-7909.085" x2="475.183" y2="-7909.085" gradientTransform="translate(0 8327.501)"><stop offset=".001" stop-color="#5a321e" stop-opacity="0"/><stop offset=".328" stop-color="#432214" stop-opacity=".328"/><stop offset=".743" stop-color="#2b1209" stop-opacity=".743"/><stop offset="1" stop-color="#220c05"/></linearGradient><path d="M439 389.7c-23.6 2.7-33.5 48.1-47.7 57.7 25.4-8.1 57.8-9.6 83.5-18.1 3.3-30.1-15.3-41.9-35.8-39.6z" fill="url(#SVGID_00000103229021181139715140000009015115311861362858_)"/><linearGradient id="SVGID_00000157285590276140382010000009716956472637892233_" gradientUnits="userSpaceOnUse" x1="419.573" y1="-7901.092" x2="464.104" y2="-7901.092" gradientTransform="translate(0 8327.501)"><stop offset=".002" stop-color="#25130e" stop-opacity="0"/><stop offset=".117" stop-color="#25130e" stop-opacity=".115"/><stop offset=".999" stop-color="#25130e"/></linearGradient><path d="M445.8 412c-12.2.7-18.8 23-26.2 28.8 14.8-2.7 30.2-4.8 44.3-8.4 1.7-14.7-7.5-21-18.1-20.4z" fill="url(#SVGID_00000157285590276140382010000009716956472637892233_)"/><linearGradient id="SVGID_00000013178457965367240430000010206732579573312902_" gradientUnits="userSpaceOnUse" x1="594.206" y1="898.947" x2="716.26" y2="831.031" gradientTransform="matrix(1 0 0 -1 0 1279.276)"><stop offset=".138" stop-color="#502414" stop-opacity="0"/><stop offset=".999" stop-color="#502414"/></linearGradient><path d="M673.2 405.8c-16.4-20-43.8-16.4-50.5-16-.3 0-.6 0-1.1.1-1.2 1.6-2.7 5.9-3.2 8.2.9 1.1 5 3.7 8 4.7 3.5 1.1 4.8 3 6.8 6.2 1.3 2.2 2 4.7 2.9 7.1.4 1 .9 2 1.4 2.8 20.4 6.7 49.3 9.9 46.2 33 2.8-15.3.1-33.2-10.5-46.1z" fill="url(#SVGID_00000013178457965367240430000010206732579573312902_)"/><linearGradient id="SVGID_00000086675257070247546650000006773555422936031912_" gradientUnits="userSpaceOnUse" x1="466.431" y1="353.789" x2="582.236" y2="441.054" gradientTransform="matrix(1 0 0 -1 0 1279.276)"><stop offset=".004" stop-color="#ffb503"/><stop offset=".868" stop-color="#ffd719"/></linearGradient><path d="M582.9 839c-33.6-44.6-80.7-49.9-80.7-49.9s-57.9-11.7-105.7 16.1c0 0 26.2 11.7 34.3 24.7 8.1 13 10.9 22.3 14 43.8 3.1 21.5 8.8 34.7 8.8 34.7 39.3 23.9 121.4 96.6 121.2 96.5l.5-.2c24.9-11.4 48.4-25.3 70.2-41.3-10.2-44.2-29.7-80.6-62.6-124.4z" fill="url(#SVGID_00000086675257070247546650000006773555422936031912_)"/><linearGradient id="SVGID_00000026874845073959428810000004386085204028454811_" gradientUnits="userSpaceOnUse" x1="223.043" y1="-7488.435" x2="453.623" y2="-7488.435" gradientTransform="translate(0 8327.501)"><stop offset=".004" stop-color="#ffb503"/><stop offset=".868" stop-color="#ffd719"/></linearGradient><path d="M453.6 908.5c-118.9-72.3-220.4-77.1-226.5-77.4 1.4-31.3-4.1-61.5-4.1-61.5s95.6 2.3 173.5 35.6c0 0 26.2 11.7 34.3 24.7 8.1 13 10.9 22.3 14 43.8 3.1 21.6 8.8 34.8 8.8 34.8z" fill="url(#SVGID_00000026874845073959428810000004386085204028454811_)"/><linearGradient id="SVGID_00000145026112366094643190000003279547232882276796_" gradientUnits="userSpaceOnUse" x1="193.272" y1="322.673" x2="559.686" y2="376.78" gradientTransform="matrix(1 0 0 -1 0 1279.276)"><stop offset=".004" stop-color="#641724"/><stop offset=".104" stop-color="#711825"/><stop offset=".288" stop-color="#941b26"/><stop offset=".433" stop-color="#b31e28"/></linearGradient><path d="M409 1040.8c59.2 0 115.3-12.8 165.9-35.9.2.1-81.8-72.5-121.2-96.5-118.9-72.3-220.2-77.1-226.3-77.3h-.2c-.2 16.9-9.3 104.9-30.5 148.8 61.5 38.6 134.3 60.9 212.3 60.9z" fill="url(#SVGID_00000145026112366094643190000003279547232882276796_)"/><linearGradient id="SVGID_00000017491317504905729190000010871562150962082742_" gradientUnits="userSpaceOnUse" x1="223.055" y1="327.876" x2="559.569" y2="377.568" gradientTransform="matrix(1 0 0 -1 0 1279.276)"><stop offset="0" stop-color="#5b0d14"/><stop offset=".461" stop-color="#94171f"/><stop offset=".705" stop-color="#ad1b24"/></linearGradient><path d="M574.8 1004.9c.2.1-81.8-72.5-121.2-96.5-118.9-72.3-220.4-77.1-226.5-77.4 0 9.9-3.2 44.2-10 79.7 24.6.8 160.2 10 285.7 119 25-5.9 49.1-14.3 72-24.8z" fill="url(#SVGID_00000017491317504905729190000010871562150962082742_)"/></svg>